<?xml version="1.0" encoding="UTF-8" standalone="no"?>
<svg
   xmlns:dc="http://purl.org/dc/elements/1.1/"
   xmlns:cc="http://creativecommons.org/ns#"
   xmlns:rdf="http://www.w3.org/1999/02/22-rdf-syntax-ns#"
   xmlns:svg="http://www.w3.org/2000/svg"
   xmlns="http://www.w3.org/2000/svg"
   id="svg4702"
   version="1.1"
   viewBox="0 0 168.57901 146.05301"
   height="146.05301mm"
   width="168.57901mm">
  <defs
     id="defs4696" />
  <metadata
     id="metadata4699">
    <rdf:RDF>
      <cc:Work
         rdf:about="">
        <dc:format>image/svg+xml</dc:format>
        <dc:type
           rdf:resource="http://purl.org/dc/dcmitype/StillImage" />
        <dc:title></dc:title>
      </cc:Work>
    </rdf:RDF>
  </metadata>
  <g
     transform="translate(-48.002167,-117.38421)"
     id="layer1">
    <path
       id="user-anon"
       d="m 132.29167,117.38421 a 84.289485,84.289485 0 0 0 -84.289503,84.2895 84.289485,84.289485 0 0 0 27.084901,61.76351 73.032239,76.638288 0 0 1 57.204602,-29.12545 73.032239,76.638288 0 0 1 57.2764,29.09989 84.289485,84.289485 0 0 0 27.0131,-61.73795 84.289485,84.289485 0 0 0 -84.2895,-84.2895 z m -15.0832,31.83572 c 4.9536,-0.073 11.0586,1.48147 15.5721,2.59118 8.0441,-1.97776 21.1249,-5.18169 23.7503,1.69483 3.5824,9.38332 -11.5031,17.14298 -23.7503,20.36492 -11.8667,-3.12181 -27.4163,-11.15153 -23.7507,-20.55345 1.1695,-2.99956 4.3258,-4.04065 8.1786,-4.09748 z m -14.2115,16.96369 c 0.2652,-0.004 0.5346,-0.003 0.8077,0.003 1.1012,0.0235 2.2688,0.13095 3.4783,0.29268 0.2942,7.80233 14.5639,12.17978 25.92,14.97185 11.8034,-2.90206 25.8335,-7.12174 25.9138,-14.96124 5.1938,-0.40298 9.2998,0.55874 10.7904,4.80144 4.7518,13.52515 -18.295,25.20467 -37.6024,25.04003 -19.3075,-0.16462 -42.471803,-11.77322 -37.602102,-25.32113 1.265298,-3.51992 4.3176,-4.76156 8.294302,-4.82604 z m -1.7966,26.59744 c 7.9974,6.21876 21.1732,10.38366 31.1044,10.46838 9.9451,0.0848 23.102,-4.03252 31.0873,-10.2408 0.01,0.32633 0.017,0.65389 0.017,0.98267 0,17.18556 -13.9317,31.1168 -31.1173,31.1168 -17.1856,0 -31.1173,-13.93124 -31.1173,-31.1168 0,-0.40549 0.011,-0.80852 0.026,-1.21025 z"
       style="opacity:1;fill:#1a1a1a;fill-opacity:1;fill-rule:nonzero;stroke:none;stroke-width:2.3812499;stroke-linecap:butt;stroke-linejoin:round;stroke-miterlimit:4;stroke-dasharray:none;stroke-dashoffset:0;stroke-opacity:1;paint-order:normal" />
  </g>
</svg>
